<svg xmlns="http://www.w3.org/2000/svg" viewBox="0 0 512 512" width="512" height="512">
  <rect width="512" height="512" rx="104" fill="#E30613"/>
  <g transform="translate(104, 97) scale(1.25) translate(-504, -151)">
    <path fill-rule="evenodd" fill="#ffffff" d="M 719.261719 169.078125 L 713.824219 167.023438 C 686.011719 156.511719 656.445312 151.109375 626.710938 151.109375 C 596.976562 151.109375 567.410156 156.511719 539.59375 167.023438 L 534.15625 169.082031 L 534.15625 197.070312 L 504.707031 197.070312 L 504.707031 286.128906 C 504.707031 296.035156 512.8125 304.144531 522.722656 304.144531 L 536.605469 304.144531 C 539.820312 320.761719 546.15625 336.6875 555.394531 351.101562 C 556.507812 352.839844 557.664062 354.554688 558.859375 356.242188 C 560.054688 357.929688 561.285156 359.589844 562.558594 361.222656 C 578.347656 381.492188 599.625 396.875 623.855469 405.4375 L 625.214844 405.917969 L 628.21875 405.917969 L 629.582031 405.4375 C 653.800781 396.875 675.078125 381.480469 690.863281 361.222656 C 692.132812 359.59375 693.367188 357.933594 694.558594 356.246094 C 695.753906 354.558594 696.910156 352.84375 698.027344 351.101562 C 707.269531 336.683594 713.652344 320.769531 716.863281 304.144531 L 748.710938 304.144531 L 748.710938 197.070312 L 719.261719 197.070312 Z"/>
    <path fill-rule="evenodd" fill="#E30613" d="M 694.019531 186.84375 C 672.285156 179.902344 649.566406 176.351562 626.710938 176.351562 C 603.851562 176.351562 581.132812 179.902344 559.398438 186.847656 L 559.398438 197.070312 L 542.570312 197.070312 L 542.570312 174.894531 C 569.433594 164.742188 597.941406 159.523438 626.710938 159.523438 C 655.484375 159.523438 683.988281 164.742188 710.847656 174.894531 L 710.847656 197.070312 L 694.019531 197.070312 Z M 578.851562 340.785156 C 579.054688 341.078125 579.257812 341.371094 579.460938 341.660156 C 580.433594 343.03125 581.4375 344.382812 582.46875 345.710938 C 594.082031 360.613281 609.328125 372.265625 626.714844 379.503906 C 644.097656 372.261719 659.347656 360.601562 670.953125 345.707031 C 671.984375 344.382812 672.988281 343.03125 673.957031 341.660156 C 674.164062 341.371094 674.367188 341.078125 674.570312 340.785156 L 694.429688 340.785156 C 693.320312 342.746094 692.15625 344.671875 690.941406 346.5625 C 689.894531 348.195312 688.8125 349.800781 687.695312 351.382812 C 686.574219 352.964844 685.417969 354.523438 684.226562 356.050781 C 669.613281 374.804688 649.78125 389.371094 626.777344 397.503906 L 626.660156 397.503906 C 603.605469 389.359375 583.789062 374.785156 569.195312 356.050781 C 568.003906 354.523438 566.847656 352.964844 565.726562 351.382812 C 564.609375 349.800781 563.523438 348.191406 562.476562 346.558594 C 561.265625 344.667969 560.105469 342.742188 558.992188 340.785156 Z"/>
  </g>
</svg>
